<svg width="32" height="17" viewBox="0 0 32 17" fill="none" xmlns="http://www.w3.org/2000/svg">
<path d="M29.4713 11.7123C30.138 11.7123 30.725 11.9589 31.2303 12.4537C31.7356 12.9486 31.9929 13.5427 32 14.2356C31.993 14.7022 31.8693 15.1303 31.6308 15.5191C31.3992 15.901 31.093 16.2095 30.7139 16.4429C30.3351 16.6689 29.9202 16.7808 29.4713 16.7808C28.777 16.7805 28.1813 16.5338 27.6833 16.0393C27.1849 15.5372 26.9379 14.9357 26.945 14.2356C26.938 13.5427 27.185 12.9486 27.6833 12.4537C28.1813 11.9593 28.7771 11.7125 29.4713 11.7123Z" fill="white"/>
<path d="M18.4033 0C19.9122 0 21.1376 0.485157 22.0781 1.4537C23.0256 2.41531 23.4992 3.77988 23.4993 5.5474V16.5061H19.0258V6.43956C19.0258 5.53436 18.7865 4.85503 18.3092 4.40243C17.8319 3.95005 17.2346 3.7242 16.5188 3.7242C15.705 3.72439 15.0711 3.98638 14.615 4.50939C14.1587 5.02564 13.9297 5.70762 13.9297 6.55624V16.5061H9.58166V6.34475C9.58166 5.54564 9.35266 4.90785 8.8964 4.43403C8.44737 3.96064 7.85453 3.72439 7.11808 3.7242C6.61971 3.7242 6.16937 3.85127 5.76927 4.10586C5.37633 4.35334 5.06464 4.70357 4.83306 5.15602C4.60142 5.60155 4.4856 6.1253 4.4856 6.72641V16.5061H0V0.211492H4.27326V3.08729H4.46388C4.8007 2.13292 5.36235 1.3805 6.14809 0.82895C6.93426 0.277349 7.87617 0 8.9712 0C10.0796 0.000147153 11.0227 0.280446 11.8015 0.838674C12.5806 1.39024 13.1005 2.13975 13.3603 3.08729H13.5292C13.8591 2.15381 14.4562 1.40707 15.3196 0.848398C16.1896 0.283024 17.2177 0.000174471 18.4033 0Z" fill="white"/>
</svg>
